<svg
  width="22"
  height="29"
  viewBox="0 0 22 29"
  fill="none"
  xmlns="http://www.w3.org/2000/svg"
>
  <path
    d="M3.81945 23.9745C5.75532 27.8016 9.96739 28.6716 11.7817 28.5761C19.0532 28.0659 21.2246 22.6186 21.4014 19.9587V11.862C20.8511 10.2674 19.3727 10.9834 19.2003 11.5626L18.5307 14.1596L18.4843 10.7621C17.3705 8.73659 15.6932 9.90293 15.3684 10.7165L15.0767 13.6324L14.6524 10.4627C13.5121 8.70795 12.2568 9.70767 11.7751 10.4106L11.4502 13.6324C11.0591 11.068 10.1641 1.91036 10.1641 1.91036C8.73206 -0.167189 7.48125 1.11414 7.03485 2.0145L6.84259 18.0582L3.41504 13.5217C1.22724 11.7253 0.155444 13.7474 0.0935669 14.8365L0.597423 16.2488C0.89797 17.2642 1.88358 20.1475 3.81945 23.9745Z"
    fill="#49C2BB"
  />
  <path
    d="M11.7034 21.874L11.854 28.7572H11.7034C11.2685 24.8696 9.33479 22.9372 8.40262 22.4438L8.48776 18.344C9.52515 18.5536 11.0921 20.8043 11.7034 21.874Z"
    fill="white"
  />
  <path
    d="M6.96263 22.7775C10.8594 25.8163 11.0166 28.0823 11.0887 28.233C8.86191 24.3558 6.26845 23.9498 6.26845 23.9498C6.2095 20.7145 5.32535 19.7976 5.32535 19.7976C5.52968 19.7295 6.43215 19.9875 6.85785 20.1251L6.96263 22.7775Z"
    fill="white"
  />
  <path
    d="M8.23399 19.3531L8.12921 22.5163C11.3252 25.1425 11.358 28.2861 11.358 28.2861C11.0698 26.865 10.0678 24.6513 7.15993 22.6604C7.15993 22.6604 7.28411 19.8966 6.91748 18.7178C6.91748 18.7178 7.87597 19.1326 8.23399 19.3531Z"
    fill="white"
  />
  <path
    d="M11.9987 21.874L11.8481 28.7572H11.9987C12.4335 24.8696 14.3673 22.9372 15.2995 22.4438L15.2143 18.344C14.1769 18.5536 12.6099 20.8043 11.9987 21.874Z"
    fill="white"
  />
  <path
    d="M16.7418 22.7775C12.845 25.8163 12.6879 28.0823 12.6158 28.233C14.8426 24.3558 17.436 23.9498 17.436 23.9498C17.495 20.7145 18.3791 19.7976 18.3791 19.7976C18.1748 19.7295 17.2723 19.9875 16.8466 20.1251L16.7418 22.7775Z"
    fill="white"
  />
  <path
    d="M15.4705 19.3531L15.5753 22.5163C12.3792 25.1425 12.3465 28.2861 12.3465 28.2861C12.6347 26.865 13.6367 24.6513 16.5445 22.6604C16.5445 22.6604 16.4204 19.8966 16.787 18.7178C16.787 18.7178 15.8285 19.1326 15.4705 19.3531Z"
    fill="white"
  />
</svg>
