<svg
  width="28"
  height="20"
  viewBox="0 0 28 20"
  fill="none"
  xmlns="http://www.w3.org/2000/svg"
>
  <path
    d="M17.1094 15.6838C14.7524 16.6036 13.9077 18.5262 13.7799 19.3726C13.724 18.8775 13.6506 17.6767 13.8039 16.8335C13.9955 15.7796 15.8159 10.486 19.337 9.40812C22.1539 8.54581 23.5448 6.17447 23.8881 5.09658C24.8941 5.86308 24.8222 6.4619 24.439 7.73141C24.0557 9.00092 20.9419 11.013 21.876 11.2285C22.8102 11.4441 25.7804 8.09071 24.942 5.45588C24.2713 3.34802 24.9021 0.952721 25.3013 0.0185547C25.5488 1.05652 26.1924 3.59713 26.7864 5.45588C27.5289 7.77932 26.6427 8.78534 24.942 11.2285C23.2413 13.6717 20.0556 14.5341 17.1094 15.6838Z"
    fill="#242424"
  />
  <path
    d="M22.0917 0.713211C21.9384 1.57552 22.8901 3.93089 23.3851 5.00079C23.1552 5.00079 22.6506 6.00682 22.427 6.50983C22.4989 6.22239 21.8522 4.95289 21.5408 3.4678C21.2917 2.27974 21.8042 1.13638 22.0917 0.713211Z"
    fill="#242424"
  />
  <path
    d="M20.3192 5.57566C20.1084 4.61755 20.5826 3.69136 20.8461 3.34804C20.8844 3.86542 21.7244 6.02279 22.1396 7.0368C22.1779 7.22842 21.405 7.83523 21.0138 8.11468C21.0298 8.07476 21.0665 7.92306 21.0857 7.63562C21.1096 7.27632 20.5826 6.77331 20.3192 5.57566Z"
    fill="#242424"
  />
  <path
    d="M19.3371 7.22842C19.1838 6.63439 19.4648 5.94294 19.6245 5.67148C19.7922 6.03875 20.1802 6.89787 20.391 7.39609C20.6018 7.89431 20.6066 8.27437 20.5826 8.40211L19.5287 8.88117C19.5447 8.8173 19.5862 8.64643 19.6245 8.47397C19.6724 8.2584 19.5287 7.97096 19.3371 7.22842Z"
    fill="#242424"
  />
  <path
    d="M10.4515 15.6838C12.8084 16.6036 13.6532 18.5262 13.7809 19.3726C13.8368 18.8775 13.9103 17.6767 13.757 16.8335C13.5654 15.7796 11.7449 10.486 8.22384 9.40812C5.40697 8.54581 4.0161 6.17447 3.67277 5.09658C2.66675 5.86308 2.73861 6.4619 3.12186 7.73141C3.5051 9.00092 6.61899 11.013 5.68482 11.2285C4.75066 11.4441 1.78049 8.09071 2.61884 5.45588C3.28953 3.34802 2.65876 0.952721 2.25955 0.0185547C2.01204 1.05652 1.3685 3.59713 0.774466 5.45588C0.0319233 7.77932 0.918182 8.78534 2.61884 11.2285C4.3195 13.6717 7.50525 14.5341 10.4515 15.6838Z"
    fill="#242424"
  />
  <path
    d="M5.46923 0.713211C5.62253 1.57552 4.6708 3.93089 4.17577 5.00079C4.40571 5.00079 4.91033 6.00682 5.13389 6.50983C5.06203 6.22239 5.70876 4.95289 6.02015 3.4678C6.26926 2.27974 5.75666 1.13638 5.46923 0.713211Z"
    fill="#242424"
  />
  <path
    d="M7.24175 5.57566C7.45254 4.61755 6.97827 3.69136 6.71479 3.34804C6.67647 3.86542 5.83651 6.02279 5.42132 7.0368C5.38299 7.22842 6.15588 7.83523 6.54711 8.11468C6.53114 8.07476 6.49441 7.92306 6.47525 7.63562C6.4513 7.27632 6.97827 6.77331 7.24175 5.57566Z"
    fill="#242424"
  />
  <path
    d="M8.22382 7.22842C8.37712 6.63439 8.09607 5.94294 7.93638 5.67148C7.76871 6.03875 7.38068 6.89787 7.16989 7.39609C6.95911 7.89431 6.95432 8.27437 6.97827 8.40211L8.0322 8.88117C8.01623 8.8173 7.97471 8.64643 7.93638 8.47397C7.88847 8.2584 8.03219 7.97096 8.22382 7.22842Z"
    fill="#242424"
  />
  <circle cx="13.732" cy="5.19234" r="3.68876" fill="#49C2BB" />
</svg>
