<svg width="34" height="32" viewBox="0 0 34 32" fill="none" xmlns="http://www.w3.org/2000/svg">
<path d="M21.3663 14.5205L28.2646 19.034C28.4769 19.1729 28.4696 19.4865 28.251 19.6153L13.8498 28.1031C13.7366 28.1697 13.5953 28.1658 13.4861 28.093L6.75935 23.6085C6.54933 23.4685 6.55792 23.1571 6.77534 23.0289L10.7553 20.6817M21.3663 14.5205L15.6225 17.8992C15.5732 17.9282 15.5319 17.9691 15.5025 18.0181L12.9802 22.222V19.9428C12.9802 19.6761 12.6888 19.5119 12.4607 19.6499L10.7553 20.6817M21.3663 14.5205L23.9335 13.0273M10.7553 20.6817V18.5387M23.9335 13.0273L33.1726 19.0315C33.3868 19.1707 33.3785 19.487 33.1573 19.6149L12.533 31.5311C12.4225 31.5949 12.2857 31.592 12.1781 31.5236L1.46661 24.7135C1.25207 24.5771 1.25584 24.2627 1.4736 24.1315L10.7553 18.5387M23.9335 13.0273V1.54423C23.9335 1.29213 23.6702 1.12652 23.4429 1.23571L10.9493 7.23914C10.8307 7.29613 10.7553 7.41607 10.7553 7.54766V18.5387" stroke="#FAFAFA" stroke-width="0.8"/>
</svg>
