<svg
  width="24"
  height="25"
  viewBox="0 0 24 25"
  fill="none"
  xmlns="http://www.w3.org/2000/svg"
>
  <path
    fill-rule="evenodd"
    clipRule="evenodd"
    d="M19.2253 4.37009C21.0655 4.94712 22.6113 5.43046 22.6606 5.44419C22.779 5.47716 22.9442 5.6326 22.99 5.75407C23.0232 5.84215 23.0261 6.66255 23.0204 14.3294L23.014 22.8073L22.952 22.9012C22.9179 22.9529 22.8546 23.0119 22.8113 23.0325C22.7033 23.0838 15.8402 24.8005 15.7456 24.7999C15.6558 24.7993 15.4776 24.7229 15.4324 24.6657C15.4149 24.6434 15.3798 24.5863 15.3544 24.5386C15.3087 24.4527 15.3083 24.3678 15.3083 14.0592C15.3083 3.90011 15.3093 3.66439 15.3526 3.5797C15.4482 3.39242 15.5748 3.31647 15.7863 3.31955C15.8408 3.32034 17.2697 3.75683 19.2253 4.37009ZM14.4457 5.46581V5.88649H12.732H11.0183V14.0592V22.2318H12.732H14.4457V22.6522V23.0725H12.4629C10.5633 23.0725 10.4766 23.0706 10.3937 23.0282C10.3461 23.0039 10.2878 22.9626 10.2642 22.9364C10.1521 22.8122 10.1577 23.2831 10.1572 14.0475C10.1567 5.6358 10.1579 5.38168 10.2002 5.28835C10.2242 5.23548 10.2835 5.16193 10.332 5.12489L10.4201 5.05755L12.4329 5.05134L14.4457 5.0451V5.46581ZM16.8751 13.6717C16.5834 13.8237 16.4997 14.4005 16.7209 14.7351C16.8003 14.8553 16.9559 14.9342 17.0708 14.9126C17.116 14.9041 17.1931 14.8609 17.2421 14.8165C17.6054 14.4878 17.4502 13.6394 17.0267 13.639C16.978 13.6389 16.9098 13.6536 16.8751 13.6717Z"
    fill="#242424"
  />
  <path
    fill-rule="evenodd"
    clipRule="evenodd"
    d="M1.82284 0C0.829867 0 0.0249023 0.804965 0.0249023 1.79794V7.88774C0.0249023 8.88071 0.829867 9.68568 1.82284 9.68568H11.4681L14.3628 13.1076L13.7509 9.67325C14.6438 9.56814 15.3364 8.80883 15.3364 7.88774V1.79794C15.3364 0.804965 14.5314 0 13.5384 0H1.82284Z"
    fill="#49C2BB"
  />
</svg>
