<svg width="12" height="28" viewBox="0 0 12 28" fill="none" xmlns="http://www.w3.org/2000/svg">
<path fill-rule="evenodd" clipRule="evenodd" d="M4.89345 1.44798C3.67602 2.90215 3.85404 3.30275 5.71816 3.30275C7.58983 3.30275 7.77432 2.86266 6.50554 1.42623L5.6873 0.5L4.89345 1.44798ZM0 16.6889V24.7852L1.26771 25.3419C1.96489 25.6483 2.59432 25.8988 2.66617 25.8988C2.73824 25.8988 2.82305 23.7367 2.85498 21.0945L2.91302 16.2902L5.61027 16.2467L8.30751 16.2032L7.4444 16.6137C6.96968 16.8395 6.02284 17.2576 5.34054 17.5431L4.09981 18.062V23.031V28L5.71061 27.2816C6.59638 26.8865 8.24472 26.1668 9.37325 25.6823L11.4255 24.8015L11.4849 17.5894C11.5175 13.6226 11.4957 9.97829 11.4363 9.4909L11.3284 8.60479L9.92586 9.22101C8.60896 9.79985 8.35196 9.83744 5.71816 9.83871C3.33617 9.83976 2.76651 9.77409 1.94202 9.40283C1.40796 9.1623 0.752639 8.88165 0.485504 8.77923L0 8.59276V16.6889Z" fill="#49C2BB"/>
</svg>

