<svg width="18" height="26" viewBox="0 0 18 26" fill="none" xmlns="http://www.w3.org/2000/svg">
<path fill-rule="evenodd" clip-rule="evenodd" d="M13.8575 0.564136C13.7819 0.573582 13.7406 0.564116 13.5787 0.613471C13.4735 0.645527 11.6936 0.881966 9.48371 1.26823C7.27371 1.6545 4.54553 2.12793 3.42096 2.32048C1.09751 2.7182 0.665677 2.83422 0.568701 3.08682C0.530962 3.18544 0.5 7.22326 0.5 12.0599C0.5 20.7417 0.503038 20.8573 0.738234 21.1284C0.959409 21.3835 1.0988 21.41 2.69528 21.5014C3.64062 21.5555 4.53233 21.6249 4.67698 21.6557C5.0088 21.7265 5.01078 21.9065 4.69824 23.6522C4.56528 24.3945 4.48151 25.0269 4.512 25.0574C4.54249 25.0879 4.82209 24.934 5.13335 24.7154C5.44461 24.4969 6.30395 23.9083 7.04296 23.4075C7.78196 22.9067 8.41289 22.4582 8.44502 22.4107C8.47715 22.3633 8.69914 22.2545 8.93819 22.1689C9.30635 22.0372 9.77768 22.0449 12.0128 22.2194C14.4333 22.4082 14.6764 22.4098 14.9372 22.2389L15.2217 22.0525V11.441C15.2217 1.30913 15.212 0.820743 15.008 0.636138C14.7771 0.42723 14.3248 0.505697 13.8575 0.564136ZM16.6568 2.75162C16.8427 2.9569 16.8574 3.62159 16.8574 11.7761C16.8574 19.9306 16.8427 20.5953 16.6568 20.8006C16.4625 21.0155 16.4723 21.0211 16.9781 20.9851L17.5 20.9479V11.7761V2.60428L16.9781 2.56713C16.4723 2.53114 16.4625 2.53675 16.6568 2.75162Z" fill="#49C2BB"/>
</svg>



