<svg width="21" height="33" viewBox="0 0 21 33" fill="none" xmlns="http://www.w3.org/2000/svg">
<path d="M11.2154 26.6501V38.5376H18.4079V27.3005C18.7822 26.9873 19.6851 25.8986 20.3026 24.0486C21.0745 21.7361 20.9341 18.7372 19.8815 16.2802C19.0395 14.3146 16.6303 13.6064 15.5309 13.498L16.0221 12.5585L16.4782 12.8476L16.8291 12.2695L16.3379 11.9804L16.9694 10.7519L15.5309 9.88477L14.8643 11.041L14.1976 10.7519L13.8819 11.2939L14.3731 11.7275L13.4608 13.3896C13.0632 13.3775 11.9732 13.5847 10.7943 14.5097C9.32072 15.6659 8.16289 19.2791 9.8821 21.5193C11.6013 23.7595 13.3205 22.3504 13.8819 21.4109C14.4432 20.4715 14.1976 16.2802 14.3731 15.8466C14.5134 15.4997 14.759 15.7021 14.8643 15.8466L15.0046 17.2919C15.3321 17.2196 16.0572 17.2846 16.3379 18.1229C16.6186 18.9612 16.0104 19.7248 15.6712 20.0018C15.8584 20.6522 16.0712 22.4515 15.4256 24.446C14.7801 26.4405 12.3498 26.7465 11.2154 26.6501Z" fill="#242424"/>
<path fill-rule="evenodd" clip-rule="evenodd" d="M9.41853 9.12041C10.1464 8.22898 10.5829 7.09037 10.5829 5.8498C10.5829 2.9918 8.26603 0.674927 5.40803 0.674927C2.55002 0.674927 0.233154 2.9918 0.233154 5.8498C0.233154 8.7078 2.55002 11.0247 5.40803 11.0247C6.40287 11.0247 7.33215 10.7439 8.12096 10.2574C8.31921 10.4916 8.59977 10.7897 8.86471 10.9543C9.49117 11.3433 10.6994 11.4012 10.6994 11.4012C10.6994 11.4012 10.0636 10.8338 9.8056 10.3662C9.59139 9.97802 9.45853 9.33419 9.41853 9.12041Z" fill="#49C2BB"/>
</svg>

