<svg width="46" height="46" viewBox="0 0 46 46" fill="none" xmlns="http://www.w3.org/2000/svg">
<path d="M11.4 32.0509V20.6121L22.5746 26.6464L22.7647 26.749L22.9548 26.6464L34.1294 20.6121V32.0509C34.1294 32.2714 34.0085 32.4741 33.8145 32.5788L22.7647 38.5457L11.7149 32.5788C11.5209 32.4741 11.4 32.2714 11.4 32.0509ZM23.0498 14.1971L33.6876 19.9415L22.7647 25.8399L11.8418 19.9415L22.4796 14.1971C22.6575 14.101 22.8719 14.101 23.0498 14.1971Z" stroke="#FAFAFA" stroke-width="0.8"/>
<path d="M33.827 13.7779C34.014 13.8847 34.1294 14.0835 34.1294 14.2989V15.6303C34.1294 16.0909 33.6319 16.3798 33.2319 16.1513L23.459 10.5704C23.0287 10.3247 22.5007 10.3247 22.0704 10.5704L12.2975 16.1513C11.8975 16.3798 11.4 16.0909 11.4 15.6303V14.2989C11.4 14.0835 11.5154 13.8847 11.7025 13.7779L22.4672 7.63054C22.6516 7.52525 22.8779 7.52525 23.0622 7.63054L33.827 13.7779Z" stroke="#FAFAFA" stroke-width="0.8"/>
</svg>
