<svg width="1072" height="675" viewBox="0 0 1072 675" fill="none" xmlns="http://www.w3.org/2000/svg">
<g clip-path="url(#clip0_0_291)">
<g opacity="0.5" filter="url(#filter0_f_0_291)">
<path d="M785.524 419.578C848.533 490.546 939.32 526.793 988.302 500.54C1037.28 474.286 1025.91 395.473 962.905 324.505C899.896 253.537 809.109 217.29 760.127 243.543C711.144 269.797 722.515 348.61 785.524 419.578Z" fill="url(#paint0_linear_0_291)"/>
<path d="M484.608 292.57C422.68 371.199 424.321 464.698 488.273 501.406C552.225 538.114 654.271 504.131 716.199 425.502C778.127 346.874 776.486 253.375 712.534 216.667C648.582 179.958 546.536 213.942 484.608 292.57Z" fill="url(#paint1_linear_0_291)"/>
<path d="M419.323 118.553C303.538 137.771 228.343 201.374 251.371 260.615C274.399 319.855 386.929 352.3 502.714 333.082C618.5 313.864 693.695 250.26 670.667 191.02C647.639 131.779 535.109 99.3349 419.323 118.553Z" fill="url(#paint2_linear_0_291)"/>
<path d="M70.9454 324.505C108.706 421.646 196.558 490.893 267.169 479.173C337.78 467.453 364.41 379.204 326.65 282.063C288.889 184.923 201.037 115.676 130.426 127.395C59.8156 139.115 33.1851 227.364 70.9454 324.505Z" fill="url(#paint3_linear_0_291)"/>
</g>
<rect x="200.431" y="203.908" width="267.833" height="267.833" transform="rotate(-13.1955 200.431 203.908)" fill="url(#paint4_linear_0_291)"/>
<g filter="url(#filter1_bf_0_291)">
<path d="M502.844 426.807C471.959 450.996 365.044 496.912 330.001 489.609C294.957 482.307 220.831 394.669 213.884 353.67C186.668 238.431 273.38 210.099 300.036 176.835C326.693 143.57 383.898 119.756 421.73 136.566C459.561 153.377 518.018 246.942 526.405 287.509" fill="url(#paint5_linear_0_291)" fill-opacity="0.2"/>
</g>
<path d="M434.859 463.389V451.102L720.089 449.786V461.634L434.859 463.389Z" fill="url(#paint6_linear_0_291)"/>
<rect width="16.675" height="5.26579" transform="matrix(1 0 0 -1 453.728 450.225)" fill="url(#paint7_linear_0_291)"/>
<rect width="16.675" height="5.26579" transform="matrix(1 0 0 -1 472.158 450.225)" fill="url(#paint8_linear_0_291)"/>
<rect width="16.675" height="5.26579" transform="matrix(1 0 0 -1 490.589 450.225)" fill="url(#paint9_linear_0_291)"/>
<rect width="16.675" height="5.26579" transform="matrix(1 0 0 -1 509.019 450.225)" fill="url(#paint10_linear_0_291)"/>
<rect width="16.675" height="5.26579" transform="matrix(1 0 0 -1 527.449 450.225)" fill="url(#paint11_linear_0_291)"/>
<rect x="423.011" y="194.834" width="290.496" height="222.041" rx="21.0632" fill="url(#paint12_linear_0_291)"/>
<rect x="427.399" y="199.222" width="286.108" height="217.653" rx="21.0632" fill="url(#paint13_linear_0_291)"/>
<path d="M453.289 220.724V261.973L461.188 220.724V261.973L469.087 220.724L469.964 261.973L478.302 220.724V261.973L486.639 220.724L487.517 261.973" stroke="url(#paint14_linear_0_291)" stroke-width="0.877631" stroke-linejoin="round"/>
<circle cx="697.709" cy="213.264" r="3.51052" fill="url(#paint15_linear_0_291)"/>
<circle cx="697.709" cy="402.833" r="3.51052" transform="rotate(-33.8543 697.709 402.833)" fill="url(#paint16_linear_0_291)"/>
<circle cx="443.196" cy="213.264" r="3.51052" fill="url(#paint17_linear_0_291)"/>
<circle cx="443.196" cy="404.588" r="3.51052" fill="url(#paint18_linear_0_291)"/>
<path d="M554.656 331.745C554.656 320.112 564.086 310.681 575.719 310.681H611.702C623.334 310.681 632.765 320.112 632.765 331.745V466.9H554.656V331.745Z" fill="url(#paint19_linear_0_291)"/>
<path d="M562.554 340.521C562.554 328.888 571.985 319.458 583.617 319.458H611.702C623.334 319.458 632.765 328.888 632.765 340.521V466.9H562.554V340.521Z" fill="url(#paint20_linear_0_291)"/>
<mask id="mask0_0_291" style="mask-type:alpha" maskUnits="userSpaceOnUse" x="578" y="330" width="49" height="65">
<path d="M578.352 351.93C578.352 340.297 587.782 330.867 599.415 330.867H605.558C617.191 330.867 626.621 340.297 626.621 351.93V372.993C626.621 384.626 617.191 394.056 605.558 394.056H599.415C587.782 394.056 578.352 384.626 578.352 372.993V351.93Z" fill="url(#paint21_linear_0_291)"/>
</mask>
<g mask="url(#mask0_0_291)">
<path d="M578.352 351.93C578.352 340.297 587.782 330.867 599.415 330.867H605.558C617.191 330.867 626.621 340.297 626.621 351.93V372.993C626.621 384.626 617.191 394.056 605.558 394.056H599.415C587.782 394.056 578.352 384.626 578.352 372.993V351.93Z" fill="#A5A5A5"/>
<path d="M575.719 351.93C575.719 340.297 585.149 330.867 596.782 330.867H601.17C612.803 330.867 622.233 340.297 622.233 351.93V370.36C622.233 381.993 612.803 391.424 601.17 391.424H596.782C585.149 391.424 575.719 381.993 575.719 370.36V351.93Z" fill="url(#paint22_linear_0_291)"/>
</g>
<path d="M505.508 355.44H554.656V357.196H507.264L505.947 379.136L505.508 355.44Z" fill="url(#paint23_linear_0_291)"/>
<path d="M529.204 377.82C528.181 395.227 516.917 431.795 507.702 425.212C498.557 418.68 519.992 409.032 534.909 422.141C549.39 434.866 547.635 457.685 549.39 467.777" stroke="url(#paint24_linear_0_291)" stroke-width="3.51052"/>
<path fill-rule="evenodd" clip-rule="evenodd" d="M517.795 357.196V369.922C517.795 370.891 518.581 371.677 519.55 371.677H522.183C522.183 371.677 522.183 371.677 522.183 371.677V376.943C522.183 377.912 522.969 378.698 523.938 378.698H535.348C536.317 378.698 537.103 377.912 537.103 376.943V371.677C537.103 371.677 537.103 371.677 537.103 371.677H538.858C539.828 371.677 540.613 370.891 540.613 369.922V357.196H517.795Z" fill="url(#paint25_linear_0_291)"/>
<path d="M522.622 359.829V368.166L526.571 359.829V368.166L530.082 359.829V368.166L533.592 359.829V368.166L537.103 359.829V368.166" stroke="url(#paint26_linear_0_291)" stroke-width="0.877631" stroke-linejoin="round"/>
<path d="M519.55 359.829V368.166C519.55 369.136 520.336 369.922 521.306 369.922H532.276" stroke="url(#paint27_linear_0_291)" stroke-width="0.877631"/>
<rect x="527.449" y="466.9" width="135.155" height="8.77631" fill="#96C7DA"/>
<path d="M323.988 293.318C324.812 296.644 320.887 291.494 317.561 292.318C314.235 293.143 312.769 299.629 311.944 296.303C311.12 292.977 313.148 289.613 316.474 288.789C319.8 287.964 323.164 289.992 323.988 293.318Z" fill="#242424"/>
<path d="M406.831 273.638C407.655 276.964 403.73 271.814 400.404 272.638C397.078 273.462 395.611 279.949 394.787 276.623C393.963 273.297 395.991 269.933 399.317 269.108C402.642 268.284 406.007 270.312 406.831 273.638Z" fill="#242424"/>
<path d="M291.512 316.246C293.953 313.847 300.712 308.711 308.223 307.362C315.734 306.013 324.268 310.755 327.596 313.294" stroke="#72F6FF" stroke-width="1.75526"/>
<path d="M402.426 292.346C404.018 289.316 408.887 282.362 415.628 278.784C422.369 275.207 431.942 277.118 435.887 278.52" stroke="#72F6FF" stroke-width="1.75526"/>
<mask id="mask1_0_291" style="mask-type:alpha" maskUnits="userSpaceOnUse" x="304" y="319" width="114" height="52">
<path d="M317.977 359.891C299.722 345.498 303.935 332.538 308.323 327.857C314.905 317.326 408.373 316.009 415.833 327.857C423.292 339.705 402.668 356.819 388.187 363.401C373.706 369.984 340.795 377.882 317.977 359.891Z" fill="url(#paint28_linear_0_291)"/>
</mask>
<g mask="url(#mask1_0_291)">
<path d="M317.977 359.891C299.722 345.498 303.935 332.538 308.323 327.857C314.905 317.326 408.373 316.009 415.833 327.857C423.292 339.705 402.668 356.819 388.187 363.401C373.706 369.984 340.795 377.882 317.977 359.891Z" fill="url(#paint29_linear_0_291)"/>
<path d="M313.589 334.001C311.833 331.895 313.442 325.517 314.466 322.592C346.061 312.499 409.514 296.789 410.567 314.693C411.883 337.073 401.352 337.073 375.023 338.828C348.694 340.583 315.783 336.634 313.589 334.001Z" fill="white"/>
<path d="M322.633 355.878C312.54 363.776 324.388 377.818 324.827 378.696C361.249 387.034 401.181 369.92 389.772 353.684C378.363 337.447 332.726 347.979 322.633 355.878Z" fill="#72F6FF"/>
</g>
<path d="M233.511 361.584C222.541 380.453 200.6 433.989 252.38 469.27C283.093 490.197 336.855 477.578 349.288 476.115M342.267 461.195C344.022 461.897 350.897 464.706 354.115 466.022C349.58 469.533 343.846 478.134 358.942 480.942C365.524 482.167 371.3 477.582 373.563 472.166M375.617 455.491C376.051 460.12 375.776 466.867 373.563 472.166M373.563 472.166C377.475 472.434 383.948 471.946 388.781 469.27M343.583 437.06C345.379 435.222 348.089 432.809 351.482 430.27M351.482 430.27C359.697 424.123 371.913 417.239 384.832 415.997C407.65 413.803 423.009 432.672 411.161 443.204C399.313 453.735 392.292 438.377 390.098 438.816C388.343 439.166 393.882 445.407 395.052 454.174M351.482 430.27C347.971 429.901 339.985 428.811 336.123 427.406C332.262 426.002 302.698 416.582 299.334 414.242M395.052 454.174C395.346 456.373 395.365 458.731 394.925 461.195C394.244 465.006 391.841 467.576 388.781 469.27M395.052 454.174C399.544 453.15 408.791 452.77 409.844 459.44C411.161 467.777 399.313 472.519 388.781 469.27" stroke="#242424" stroke-width="1.75526"/>
<path d="M486.2 195.127L517.026 151.932M521.307 153.878C519.361 153.619 515.08 151.31 513.524 144.15C511.967 136.989 512.356 134.421 512.746 134.032C504.833 131.178 491.187 123.37 499.904 114.964C510.8 104.457 522.085 118.856 528.7 116.91C535.316 114.964 535.316 81.8873 554.384 85.3896C569.638 88.1914 556.589 111.462 548.157 122.747C556.2 111.332 570.563 90.4485 582.791 97.8421C599.524 107.96 575.916 126.12 567.225 135.589C575.008 130.53 591.507 123.447 595.243 135.589C599.913 150.765 575.397 148.041 569.56 155.435C564.89 161.35 558.275 184.361 555.551 195.127M548.936 143.371C548.157 143.371 541.153 146.874 539.207 151.154C537.651 154.578 538.559 160.104 539.207 162.439" stroke="#242424" stroke-width="1.75526" stroke-linecap="round" stroke-linejoin="round"/>
<mask id="mask2_0_291" style="mask-type:alpha" maskUnits="userSpaceOnUse" x="739" y="377" width="31" height="49">
<path d="M754.916 377.652C727.142 378.61 746.536 422.904 746.775 424.101C746.775 424.101 746.536 425.538 754.197 425.538C761.859 425.538 761.141 424.101 761.141 424.101C768.324 408.299 777.135 376.886 754.916 377.652Z" fill="url(#paint30_linear_0_291)"/>
</mask>
<g mask="url(#mask2_0_291)">
<path d="M754.916 377.652C727.142 378.61 746.536 422.904 746.775 424.101C746.775 424.101 746.536 425.538 754.197 425.538C761.859 425.538 761.141 424.101 761.141 424.101C768.324 408.299 777.135 376.886 754.916 377.652Z" fill="url(#paint31_linear_0_291)"/>
<path d="M726.274 369.414C721.869 364.434 723.64 358.241 725.077 355.767C721.964 355.767 715.5 356.293 714.542 358.4C713.345 361.034 717.894 369.414 720.767 373.484C723.64 377.555 729.866 383.301 732.499 385.695C735.133 388.089 735.851 406.765 736.57 409.877C737.288 412.99 744.231 424.483 745.189 425.919C746.147 427.356 759.315 426.159 762.428 425.919C765.54 425.68 783.737 410.117 796.187 391.92C806.147 377.363 790.601 370.531 781.582 368.935C781.263 374.921 779.619 387.802 775.596 391.441C771.574 395.081 768.174 395.192 766.977 394.793C764.663 400.141 758.166 410.356 750.696 408.441C743.226 406.525 746.466 392 749.02 384.977C747.184 385.536 742.938 386.174 740.64 384.259C738.341 382.343 738.405 378.991 738.724 377.555C736.41 376.916 730.68 374.394 726.274 369.414Z" fill="url(#paint32_linear_0_291)"/>
</g>
<mask id="mask3_0_291" style="mask-type:alpha" maskUnits="userSpaceOnUse" x="720" y="356" width="25" height="31">
<path d="M724.269 356.822C712.393 361.611 731.611 378.929 742.705 386.99L744.381 385.314C742.625 373.821 736.145 352.033 724.269 356.822Z" fill="url(#paint33_linear_0_291)"/>
</mask>
<g mask="url(#mask3_0_291)">
<path d="M724.269 356.822C712.393 361.611 731.611 378.929 742.705 386.99L744.381 385.314C742.625 373.821 736.145 352.033 724.269 356.822Z" fill="url(#paint34_linear_0_291)"/>
<path d="M726.231 369.653C721.826 364.673 723.598 358.48 725.034 356.006C721.922 356.006 715.457 356.533 714.499 358.64C713.302 361.273 717.851 369.653 720.724 373.724C723.597 377.794 729.823 383.54 732.456 385.934C735.09 388.329 735.808 407.004 736.527 410.117C737.245 413.229 744.188 424.722 745.146 426.158C746.104 427.595 759.272 426.398 762.385 426.158C765.497 425.919 783.694 410.356 796.144 392.16C806.104 377.602 790.558 370.771 781.539 369.174C781.22 375.16 779.576 388.041 775.553 391.681C771.531 395.32 768.131 395.432 766.934 395.033C764.62 400.38 758.123 410.596 750.653 408.68C743.183 406.765 746.423 392.239 748.977 385.216C747.141 385.775 742.895 386.413 740.597 384.498C738.298 382.582 738.362 379.23 738.681 377.794C736.367 377.155 730.637 374.633 726.231 369.653Z" fill="url(#paint35_linear_0_291)"/>
</g>
<mask id="mask4_0_291" style="mask-type:alpha" maskUnits="userSpaceOnUse" x="763" y="370" width="25" height="30">
<path d="M782.929 372.145C767.605 364.723 763.775 393.694 763.535 394.651L767.127 399.44C777.502 392.816 795.188 378.083 782.929 372.145Z" fill="url(#paint36_linear_0_291)"/>
</mask>
<g mask="url(#mask4_0_291)">
<path d="M782.929 372.145C767.605 364.723 763.775 393.694 763.535 394.651L767.127 399.44C777.502 392.816 795.188 378.083 782.929 372.145Z" fill="url(#paint37_linear_0_291)"/>
<path d="M726.231 369.653C721.826 364.673 723.598 358.48 725.034 356.006C721.922 356.006 715.457 356.533 714.499 358.64C713.302 361.273 717.851 369.653 720.724 373.724C723.597 377.794 729.823 383.54 732.456 385.934C735.09 388.329 735.808 407.004 736.527 410.117C737.245 413.229 744.188 424.722 745.146 426.158C746.104 427.595 759.272 426.398 762.385 426.158C765.497 425.919 783.694 410.356 796.144 392.16C806.104 377.602 790.558 370.771 781.539 369.174C784.455 376.597 784.455 385.695 775.553 391.681C771.052 394.707 768.131 395.432 766.934 395.033C764.62 400.38 758.123 410.596 750.653 408.68C743.183 406.765 746.423 392.239 748.977 385.216C747.141 385.775 742.895 386.413 740.597 384.498C738.298 382.582 738.362 379.23 738.681 377.794C736.367 377.155 730.637 374.633 726.231 369.653Z" fill="url(#paint38_linear_0_291)"/>
</g>
<path d="M757.789 339.344C735.762 333.119 754.916 379.328 754.916 381.244L761.38 382.441C767.526 370.15 775.411 344.324 757.789 339.344Z" fill="url(#paint39_linear_0_291)"/>
<path d="M744.95 422.089C744.231 422.089 733.962 423.036 734.415 424.243M734.415 424.243C735.851 428.074 772.484 427.835 773.442 424.962M734.415 424.243C734.734 426.797 734.894 429.75 735.851 431.187C736.18 431.68 737.048 432.312 738.006 432.607M773.442 424.962C773.744 424.053 767.057 422.966 763.386 422.328M773.442 424.962C773.442 426.717 773.298 430.181 771.766 431.905C771.594 432.098 770.808 432.623 770.329 432.873M738.006 432.607L743.513 459.2C745.269 460.078 748.062 462.073 755.245 462.073C761.47 462.073 763.944 460.317 765.301 459.679L770.329 432.873M738.006 432.607C746.626 435.257 766.259 435.496 770.329 432.873" stroke="#242424" stroke-width="0.478857" stroke-linejoin="round"/>
<path d="M751.572 380.428C751.333 381.146 745.347 389.766 746.544 403.413C747.502 414.331 750.455 421.211 751.812 423.286" stroke="url(#paint40_linear_0_291)" stroke-width="0.478857"/>
<path d="M759.698 387.634C759.878 388.252 765.132 395.965 762.827 407.129C760.983 416.061 757.483 421.458 755.963 423.04" stroke="url(#paint41_linear_0_291)" stroke-width="0.478857"/>
<path d="M766.498 390.963C769.291 390.723 775.692 389.191 778.948 384.977C782.205 380.763 782.38 375.4 782.061 373.245M752.372 340.683C750.696 343.636 747.966 351.553 750.456 359.598C752.946 367.642 754.527 373.804 755.006 375.879M758.836 341.88C761.071 344.035 765.54 350.164 765.54 357.443C765.54 364.721 764.263 368.935 763.625 370.133M725.795 357.922C727.312 357.842 730.871 358.305 732.978 360.795C735.085 363.285 737.048 367.738 737.767 369.654" stroke="url(#paint42_linear_0_291)" stroke-width="0.478857"/>
<path d="M755.963 339.007C754.926 337.171 753.378 333.5 755.484 333.5C757.591 333.5 758.437 337.49 758.597 339.486C759.555 337.251 761.949 333.356 763.864 335.655C765.78 337.953 762.747 339.965 760.991 340.683M725.316 356.485C723.72 354.969 721.007 351.888 722.922 351.697C724.838 351.505 726.593 354.011 727.232 355.288C727.791 354.011 729.195 351.697 730.344 352.654C731.494 353.612 730.344 355.607 729.626 356.485M759.555 384.019C758.278 382.503 756.155 379.422 757.879 379.231C760.034 378.991 760.752 383.062 761.47 383.301C762.188 383.541 762.907 378.034 764.583 379.71C766.259 381.386 762.428 384.498 762.907 384.977C763.386 385.456 767.935 385.456 766.498 387.611C765.062 389.766 761.949 385.935 761.47 385.935C760.991 385.935 763.386 391.681 761.47 391.202C759.555 390.723 760.034 386.414 759.555 385.935C759.076 385.456 755.245 388.568 754.287 385.935C753.521 383.828 757.48 383.78 759.555 384.019Z" stroke="url(#paint43_linear_0_291)" stroke-width="0.478857"/>
<path fill-rule="evenodd" clip-rule="evenodd" d="M236.676 161.346C239.753 157.216 241.4 152.703 241.273 148.008C240.781 129.761 213.681 115.69 180.744 116.579C147.807 117.468 121.505 132.98 121.997 151.227C122.49 169.474 149.59 183.545 182.527 182.657C198.551 182.224 213.005 178.33 223.566 172.344L240.775 181.949L236.676 161.346Z" fill="url(#paint44_linear_0_291)"/>
<ellipse cx="177.274" cy="143.493" rx="45.6368" ry="25.0125" fill="url(#paint45_linear_0_291)"/>
</g>
<defs>
<filter id="filter0_f_0_291" x="-48.1614" y="11.0743" width="1168.83" height="607.065" filterUnits="userSpaceOnUse" color-interpolation-filters="sRGB">
<feFlood flood-opacity="0" result="BackgroundImageFix"/>
<feBlend mode="normal" in="SourceGraphic" in2="BackgroundImageFix" result="shape"/>
<feGaussianBlur stdDeviation="50.9725" result="effect1_foregroundBlur_0_291"/>
</filter>
<filter id="filter1_bf_0_291" x="186.124" y="108.496" width="362.819" height="404.429" filterUnits="userSpaceOnUse" color-interpolation-filters="sRGB">
<feFlood flood-opacity="0" result="BackgroundImageFix"/>
<feGaussianBlur in="BackgroundImageFix" stdDeviation="11.2689"/>
<feComposite in2="SourceAlpha" operator="in" result="effect1_backgroundBlur_0_291"/>
<feBlend mode="normal" in="SourceGraphic" in2="effect1_backgroundBlur_0_291" result="shape"/>
<feGaussianBlur stdDeviation="4.50755" result="effect2_foregroundBlur_0_291"/>
</filter>
<linearGradient id="paint0_linear_0_291" x1="1018.25" y1="457.188" x2="148.639" y2="65.7884" gradientUnits="userSpaceOnUse">
<stop offset="0.0628211" stop-color="#EEF3FF"/>
<stop offset="0.517404" stop-color="#43FFF4"/>
<stop offset="0.93247" stop-color="#A0B4FF"/>
</linearGradient>
<linearGradient id="paint1_linear_0_291" x1="1018.25" y1="457.188" x2="148.639" y2="65.7884" gradientUnits="userSpaceOnUse">
<stop offset="0.0628211" stop-color="#EEF3FF"/>
<stop offset="0.517404" stop-color="#43FFF4"/>
<stop offset="0.93247" stop-color="#A0B4FF"/>
</linearGradient>
<linearGradient id="paint2_linear_0_291" x1="1018.25" y1="457.188" x2="148.639" y2="65.7884" gradientUnits="userSpaceOnUse">
<stop offset="0.0628211" stop-color="#EEF3FF"/>
<stop offset="0.517404" stop-color="#43FFF4"/>
<stop offset="0.93247" stop-color="#A0B4FF"/>
</linearGradient>
<linearGradient id="paint3_linear_0_291" x1="1018.25" y1="457.188" x2="148.639" y2="65.7884" gradientUnits="userSpaceOnUse">
<stop offset="0.0628211" stop-color="#EEF3FF"/>
<stop offset="0.517404" stop-color="#43FFF4"/>
<stop offset="0.93247" stop-color="#A0B4FF"/>
</linearGradient>
<linearGradient id="paint4_linear_0_291" x1="334.348" y1="203.908" x2="334.348" y2="471.741" gradientUnits="userSpaceOnUse">
<stop stop-color="#46ECF6"/>
<stop offset="1" stop-color="#B3C7FF"/>
</linearGradient>
<linearGradient id="paint5_linear_0_291" x1="353.554" y1="140.721" x2="419.44" y2="419.688" gradientUnits="userSpaceOnUse">
<stop stop-color="#EBFFFE"/>
<stop offset="1" stop-color="#AFF4F0"/>
</linearGradient>
<linearGradient id="paint6_linear_0_291" x1="545.879" y1="449.347" x2="439.686" y2="449.347" gradientUnits="userSpaceOnUse">
<stop stop-color="#EAEAEA"/>
<stop offset="1" stop-color="#00ADEE"/>
</linearGradient>
<linearGradient id="paint7_linear_0_291" x1="8.3375" y1="0" x2="8.3375" y2="5.26579" gradientUnits="userSpaceOnUse">
<stop stop-color="white"/>
<stop offset="1" stop-color="#00ADEE"/>
</linearGradient>
<linearGradient id="paint8_linear_0_291" x1="8.3375" y1="0" x2="8.3375" y2="5.26579" gradientUnits="userSpaceOnUse">
<stop stop-color="white"/>
<stop offset="1" stop-color="#00ADEE"/>
</linearGradient>
<linearGradient id="paint9_linear_0_291" x1="8.3375" y1="0" x2="8.3375" y2="5.26579" gradientUnits="userSpaceOnUse">
<stop stop-color="white"/>
<stop offset="1" stop-color="#00ADEE"/>
</linearGradient>
<linearGradient id="paint10_linear_0_291" x1="8.3375" y1="0" x2="8.3375" y2="5.26579" gradientUnits="userSpaceOnUse">
<stop stop-color="white"/>
<stop offset="1" stop-color="#00ADEE"/>
</linearGradient>
<linearGradient id="paint11_linear_0_291" x1="8.3375" y1="0" x2="8.3375" y2="5.26579" gradientUnits="userSpaceOnUse">
<stop stop-color="white"/>
<stop offset="1" stop-color="#00ADEE"/>
</linearGradient>
<linearGradient id="paint12_linear_0_291" x1="371.328" y1="204.683" x2="779.448" y2="205.126" gradientUnits="userSpaceOnUse">
<stop stop-color="#00ADEE"/>
<stop offset="0.836223" stop-color="#D6D6D6"/>
</linearGradient>
<linearGradient id="paint13_linear_0_291" x1="376.496" y1="208.876" x2="778.452" y2="209.315" gradientUnits="userSpaceOnUse">
<stop stop-color="#00ADEE"/>
<stop offset="0.265439" stop-color="#FAFAFA"/>
</linearGradient>
<linearGradient id="paint14_linear_0_291" x1="470.403" y1="220.724" x2="524.536" y2="260.308" gradientUnits="userSpaceOnUse">
<stop stop-color="#00ADEE"/>
<stop offset="0.44072" stop-color="#00ADEE" stop-opacity="0"/>
</linearGradient>
<linearGradient id="paint15_linear_0_291" x1="697.709" y1="209.754" x2="697.709" y2="216.775" gradientUnits="userSpaceOnUse">
<stop stop-color="#00ADEE"/>
<stop offset="1" stop-color="#A9A9A9"/>
</linearGradient>
<linearGradient id="paint16_linear_0_291" x1="697.709" y1="399.322" x2="697.709" y2="406.343" gradientUnits="userSpaceOnUse">
<stop stop-color="#00ADEE"/>
<stop offset="1" stop-color="#A9A9A9"/>
</linearGradient>
<linearGradient id="paint17_linear_0_291" x1="443.196" y1="209.754" x2="443.196" y2="215.02" gradientUnits="userSpaceOnUse">
<stop stop-color="#00ADEE"/>
<stop offset="1" stop-color="#00ADEE" stop-opacity="0"/>
</linearGradient>
<linearGradient id="paint18_linear_0_291" x1="443.196" y1="401.077" x2="443.196" y2="406.343" gradientUnits="userSpaceOnUse">
<stop stop-color="#00ADEE"/>
<stop offset="1" stop-color="#00ADEE" stop-opacity="0"/>
</linearGradient>
<linearGradient id="paint19_linear_0_291" x1="493.66" y1="337.888" x2="628.377" y2="339.643" gradientUnits="userSpaceOnUse">
<stop stop-color="#00ADEE"/>
<stop offset="0.956156" stop-color="white"/>
</linearGradient>
<linearGradient id="paint20_linear_0_291" x1="530.082" y1="348.42" x2="627.936" y2="346.979" gradientUnits="userSpaceOnUse">
<stop stop-color="#00ADEE"/>
<stop offset="0.956156" stop-color="#D2D2D2"/>
</linearGradient>
<linearGradient id="paint21_linear_0_291" x1="556.027" y1="343.279" x2="623.279" y2="341.691" gradientUnits="userSpaceOnUse">
<stop stop-color="#00ADEE"/>
<stop offset="0.956156" stop-color="#242424"/>
</linearGradient>
<linearGradient id="paint22_linear_0_291" x1="554.206" y1="342.762" x2="619.012" y2="341.223" gradientUnits="userSpaceOnUse">
<stop stop-color="#00ADEE"/>
<stop offset="0.956156" stop-color="#F5F5F5"/>
</linearGradient>
<linearGradient id="paint23_linear_0_291" x1="521.744" y1="339.643" x2="530.082" y2="366.85" gradientUnits="userSpaceOnUse">
<stop stop-color="#00ADEE"/>
<stop offset="1" stop-color="#242424"/>
</linearGradient>
<linearGradient id="paint24_linear_0_291" x1="542.808" y1="413.364" x2="505.508" y2="446.714" gradientUnits="userSpaceOnUse">
<stop stop-color="white"/>
<stop offset="0.739306" stop-color="#00ADEE"/>
</linearGradient>
<linearGradient id="paint25_linear_0_291" x1="529.204" y1="357.196" x2="541.93" y2="375.187" gradientUnits="userSpaceOnUse">
<stop stop-color="#00ADEE"/>
<stop offset="0.972695" stop-color="white"/>
</linearGradient>
<linearGradient id="paint26_linear_0_291" x1="529.862" y1="359.829" x2="540.378" y2="375.923" gradientUnits="userSpaceOnUse">
<stop stop-color="#00ADEE"/>
<stop offset="1" stop-color="#00ADEE" stop-opacity="0"/>
</linearGradient>
<linearGradient id="paint27_linear_0_291" x1="525.913" y1="359.829" x2="539.736" y2="375.188" gradientUnits="userSpaceOnUse">
<stop stop-color="#00ADEE"/>
<stop offset="1" stop-color="#00ADEE" stop-opacity="0"/>
</linearGradient>
<linearGradient id="paint28_linear_0_291" x1="360.971" y1="319.458" x2="360.971" y2="370.932" gradientUnits="userSpaceOnUse">
<stop stop-color="#34D0E2"/>
<stop offset="1" stop-color="#6EB1ED"/>
</linearGradient>
<linearGradient id="paint29_linear_0_291" x1="360.971" y1="319.458" x2="360.971" y2="370.932" gradientUnits="userSpaceOnUse">
<stop stop-color="#34D0E2"/>
<stop offset="1" stop-color="#6EB1ED"/>
</linearGradient>
<linearGradient id="paint30_linear_0_291" x1="746.057" y1="394.412" x2="729.297" y2="429.369" gradientUnits="userSpaceOnUse">
<stop stop-color="#49C2BB"/>
<stop offset="1" stop-color="#49C2BB" stop-opacity="0"/>
</linearGradient>
<linearGradient id="paint31_linear_0_291" x1="746.057" y1="394.412" x2="729.297" y2="429.369" gradientUnits="userSpaceOnUse">
<stop stop-color="#49C2BB"/>
<stop offset="1" stop-color="#49C2BB" stop-opacity="0"/>
</linearGradient>
<linearGradient id="paint32_linear_0_291" x1="756.874" y1="355.767" x2="756.874" y2="426.614" gradientUnits="userSpaceOnUse">
<stop stop-color="#49C2BB"/>
<stop offset="1" stop-color="#24A59D"/>
</linearGradient>
<linearGradient id="paint33_linear_0_291" x1="732.454" y1="356.145" x2="732.454" y2="386.99" gradientUnits="userSpaceOnUse">
<stop stop-color="#4DFFF5"/>
<stop offset="1" stop-color="#49C2BB"/>
</linearGradient>
<linearGradient id="paint34_linear_0_291" x1="732.454" y1="356.145" x2="732.454" y2="386.99" gradientUnits="userSpaceOnUse">
<stop stop-color="#4DFFF5"/>
<stop offset="1" stop-color="#49C2BB"/>
</linearGradient>
<linearGradient id="paint35_linear_0_291" x1="756.831" y1="356.006" x2="756.831" y2="426.853" gradientUnits="userSpaceOnUse">
<stop stop-color="#49C2BB"/>
<stop offset="1" stop-color="#24A59D"/>
</linearGradient>
<linearGradient id="paint36_linear_0_291" x1="775.316" y1="370.93" x2="763.775" y2="398.243" gradientUnits="userSpaceOnUse">
<stop stop-color="#4DFFF5"/>
<stop offset="0.801857" stop-color="#49C2BB"/>
</linearGradient>
<linearGradient id="paint37_linear_0_291" x1="775.316" y1="370.93" x2="763.775" y2="398.243" gradientUnits="userSpaceOnUse">
<stop stop-color="#4DFFF5"/>
<stop offset="0.801857" stop-color="#49C2BB"/>
</linearGradient>
<linearGradient id="paint38_linear_0_291" x1="756.831" y1="356.006" x2="756.831" y2="426.853" gradientUnits="userSpaceOnUse">
<stop stop-color="#49C2BB"/>
<stop offset="1" stop-color="#24A59D"/>
</linearGradient>
<linearGradient id="paint39_linear_0_291" x1="757.881" y1="338.767" x2="757.881" y2="382.441" gradientUnits="userSpaceOnUse">
<stop stop-color="#A1FFFA"/>
<stop offset="1" stop-color="#49C2BB"/>
</linearGradient>
<linearGradient id="paint40_linear_0_291" x1="750.854" y1="382.583" x2="749.099" y2="423.286" gradientUnits="userSpaceOnUse">
<stop stop-color="#4DFFF5" stop-opacity="0"/>
<stop offset="0.330567" stop-color="#49C2BB"/>
<stop offset="1" stop-color="#35B2AB"/>
</linearGradient>
<linearGradient id="paint41_linear_0_291" x1="762.16" y1="387.877" x2="758.663" y2="423.306" gradientUnits="userSpaceOnUse">
<stop stop-color="#4DFFF5" stop-opacity="0"/>
<stop offset="0.359375" stop-color="#4DFFF5"/>
<stop offset="1" stop-color="#49C2BB"/>
</linearGradient>
<linearGradient id="paint42_linear_0_291" x1="753.984" y1="340.683" x2="753.984" y2="390.963" gradientUnits="userSpaceOnUse">
<stop stop-color="#A1FFFA"/>
<stop offset="0.9375" stop-color="#4DFFF5"/>
</linearGradient>
<linearGradient id="paint43_linear_0_291" x1="744.52" y1="333.5" x2="744.52" y2="391.231" gradientUnits="userSpaceOnUse">
<stop stop-color="#A1FFFA"/>
<stop offset="0.9375" stop-color="#4DFFF5"/>
</linearGradient>
<linearGradient id="paint44_linear_0_291" x1="152.701" y1="109.704" x2="319.012" y2="242.665" gradientUnits="userSpaceOnUse">
<stop offset="0.158352" stop-color="white"/>
<stop offset="1" stop-color="#A1FFFA"/>
</linearGradient>
<linearGradient id="paint45_linear_0_291" x1="228.616" y1="163.678" x2="125.055" y2="114.531" gradientUnits="userSpaceOnUse">
<stop stop-color="white"/>
<stop offset="1" stop-color="white" stop-opacity="0"/>
</linearGradient>
<clipPath id="clip0_0_291">
<rect width="1072" height="674.317" fill="white"/>
</clipPath>
</defs>
</svg>
