
        <svg width="32" height="22" viewBox="0 0 32 22" fill="none" xmlns="http://www.w3.org/2000/svg">
<path d="M4.94763 8.19333C5.65655 1.00963 13.6909 2.33307 13.6909 2.33307C13.6909 2.33307 12.3218 3.77402 11.9896 5.12134C11.6573 6.46867 11.9896 9.23315 11.9896 9.23315C11.9896 9.23315 9.95731 9.22757 9.95731 11.029C9.95731 13.1085 11.9896 13.2503 11.9896 13.2503C11.9896 13.2503 12.6666 15.7439 13.6909 16.8421C14.7153 17.9403 17.2355 18.8744 17.2355 18.8744C17.2355 18.8744 15.3451 21.743 10.5244 21.0485C4.94764 20.245 4.94764 15.2353 4.94764 15.2353L4.94763 8.19333Z" fill="#49C2BB"/>
<path d="M19.5042 0.0179106C15.7705 -0.238031 13.691 2.33371 13.691 2.33371C13.691 2.33371 16.5857 3.18519 17.85 5.16928C19.1143 7.15336 20.1658 12.4948 20.1658 12.4948H19.0788V14.2435H16.8103C16.8103 14.2435 17.0186 15.1492 17.4247 15.4722C17.8307 15.7952 18.8898 15.8976 18.8898 15.8976C18.8898 15.8976 18.6456 16.885 18.3226 17.4572C17.9996 18.0293 17.2356 18.8278 17.2356 18.8278C17.2356 18.8278 19.7405 19.5398 22.5761 18.1662C25.8935 16.5592 26.0735 12.9675 26.0735 12.9675V5.68924C26.0735 5.68924 24.9864 0.393723 19.5042 0.0179106Z" fill="#242424"/>
<circle cx="15.5847" cy="9.55992" r="1.06221" fill="#242424"/>
<path d="M0 20.2143L5.23023 15.6908L7.20924 18.6593L0 20.2143Z" fill="#49C2BB"/>
<path d="M31.0979 1.41317L25.8677 5.93661L23.8887 2.96811L31.0979 1.41317Z" fill="#242424"/>
</svg>

