<svg width="27" height="30" viewBox="0 0 27 30" fill="none" xmlns="http://www.w3.org/2000/svg">
<path d="M8.51882 17.8218C8.51882 19.0692 7.64314 19.5747 6.56292 18.9511C5.48271 18.3274 4.60703 16.8107 4.60703 15.5634C4.60703 14.316 5.48271 13.8105 6.56293 14.4341C7.64314 15.0578 8.51882 16.5745 8.51882 17.8218Z" stroke="#FAFAFA" stroke-width="0.8"/>
<path d="M3.07358 21.6645C3.07358 20.2285 4.08169 19.6465 5.32525 20.3645L7.83348 21.8126C9.06683 22.5247 10.0707 24.25 10.085 25.6823L10.1039 27.576L3.07358 23.4405L3.07358 21.6645Z" stroke="#FAFAFA" stroke-width="0.8"/>
<path d="M12.6873 0.281367L12.8851 0.629033C13.0691 0.524364 13.2946 0.524364 13.4785 0.629033L25.5548 7.5L13.1818 14.5398L0.808858 7.5L12.8851 0.629033L12.6873 0.281367ZM0.4 8.1878L12.984 15.3477L13.1818 15.4602L13.3796 15.3477L25.9636 8.1878V21.9184C25.9636 22.1341 25.8478 22.3333 25.6604 22.4399L13.1818 29.5398L0.703285 22.4399C0.515796 22.3333 0.4 22.1341 0.4 21.9184V8.1878Z" stroke="#FAFAFA" stroke-width="0.8"/>
</svg>
