
        <svg width="30" height="20" viewBox="0 0 30 20" fill="none" xmlns="http://www.w3.org/2000/svg">
<path fill-rule="evenodd" clip-rule="evenodd" d="M28.1112 18.7237L24.0281 11.6021L19.945 18.7237H21.186C21.1501 18.8305 21.1083 18.9345 21.0608 19.0207C20.88 19.3484 20.4344 19.746 20.4344 19.746C20.4344 19.746 21.2812 19.7055 21.7202 19.4328C22.0212 19.2458 22.351 18.8128 22.4172 18.7237H28.1112Z" fill="#49C2BB"/>
<path d="M25.1553 19.1598C25.3425 19.3804 25.5423 19.4539 25.8316 19.4625C26.1883 19.4731 26.4051 19.2831 26.5226 19.0429C26.697 18.6861 26.5282 18.2472 26.3592 18.0824C26.2837 18.0087 26.0895 18.0638 26.0895 18.0638C26.0895 18.0638 25.9903 17.8465 25.8887 17.8211C25.7796 17.7939 25.6827 17.958 25.6827 17.958C25.6827 17.958 25.6212 17.8014 25.5366 17.7978C25.3126 17.7884 25.3533 18.1176 25.3533 18.1176C25.3533 18.1176 25.2327 18.0354 25.1522 18.0533C24.9281 18.1033 24.8758 18.8303 25.1553 19.1598Z" fill="white"/>
<path d="M21.977 13.639C21.6888 13.6648 21.5136 13.7857 21.3398 14.0171C21.1255 14.3025 21.1557 14.5891 21.2842 14.8236C21.4752 15.1718 21.9311 15.2869 22.1632 15.2439C22.267 15.2247 22.3339 15.0343 22.3339 15.0343C22.3339 15.0343 22.5686 15.0785 22.6479 15.0101C22.7331 14.9366 22.6548 14.7629 22.6548 14.7629C22.6548 14.7629 22.8183 14.803 22.87 14.7359C23.0068 14.5583 22.7144 14.4017 22.7144 14.4017C22.7144 14.4017 22.8511 14.3506 22.8828 14.2745C22.9712 14.0626 22.4074 13.6006 21.977 13.639Z" fill="white"/>
<path d="M2.27772 11.5957C2.46496 11.7057 2.82173 11.7111 2.82173 11.7111L2.54148 12.0078C2.54148 12.0078 2.10866 12.0392 1.79962 11.9254C1.20618 11.7068 0.929943 11.2597 0.695132 10.6725C0.156143 9.32462 0.831416 7.99171 2.11281 7.30953C3.33448 6.65914 4.4887 6.97466 5.37694 7.91949C5.97257 8.55306 6.22245 9.38588 6.00336 10.2274C5.86609 10.7547 5.32749 11.1506 5.32749 11.1506L4.84941 11.1836C4.84941 11.1836 5.02226 10.8504 5.09669 10.6231C5.15645 10.4405 5.21209 10.145 5.21209 10.145C5.21209 10.145 5.46315 10.0637 5.57477 9.94717C5.88696 9.62135 5.74373 8.78335 5.29452 8.82617C5.09004 8.84567 4.84941 9.10642 4.84941 9.10642L4.33837 8.31513C4.33837 8.31513 3.25539 8.2386 2.64039 8.49647C2.20894 8.67738 1.65128 9.17236 1.65128 9.17236V10.0131C1.65128 10.0131 1.32091 10.0197 1.1732 10.145C0.845569 10.4229 1.12352 11.0631 1.53588 11.1836C1.67801 11.2251 1.91504 11.1836 1.91504 11.1836C1.91504 11.1836 2.09287 11.4871 2.27772 11.5957Z" fill="#242424"/>
<path fill-rule="evenodd" clip-rule="evenodd" d="M7.62741 16.9873C8.13749 16.3625 8.44342 15.5645 8.44342 14.6951C8.44342 12.6921 6.81967 11.0684 4.81667 11.0684C2.81366 11.0684 1.18991 12.6921 1.18991 14.6951C1.18991 16.6981 2.81366 18.3219 4.81667 18.3219C5.51394 18.3219 6.16525 18.1251 6.7181 17.7841C6.85704 17.9482 7.05361 18.157 7.23924 18.2723C7.67829 18.545 8.52509 18.5855 8.52509 18.5855C8.52509 18.5855 8.07948 18.1879 7.89865 17.8602C7.74858 17.5882 7.65548 17.1372 7.62741 16.9873Z" fill="#49C2BB"/>
<path d="M1.70058 12.2549C1.41321 12.2887 1.24139 12.4144 1.07414 12.6506C0.867828 12.9418 0.906039 13.2275 1.04108 13.4583C1.24163 13.8011 1.70058 13.9034 1.93138 13.854C2.03462 13.8319 2.0962 13.6397 2.0962 13.6397C2.0962 13.6397 2.33203 13.6773 2.40945 13.6067C2.4925 13.5309 2.40945 13.3594 2.40945 13.3594C2.40945 13.3594 2.57396 13.3949 2.62376 13.3265C2.75561 13.1451 2.4589 12.9967 2.4589 12.9967C2.4589 12.9967 2.59417 12.9418 2.62376 12.8649C2.70616 12.6506 2.12974 12.2045 1.70058 12.2549Z" fill="white"/>
<path d="M6.1784 10.8545C6.43786 10.7264 6.65046 10.7385 6.91927 10.8455C7.25087 10.9776 7.37429 11.2381 7.38659 11.5052C7.40486 11.9019 7.07552 12.2376 6.85498 12.3217C6.75632 12.3593 6.60007 12.2316 6.60007 12.2316C6.60007 12.2316 6.42272 12.3915 6.31932 12.3744C6.2084 12.356 6.18476 12.1669 6.18476 12.1669C6.18476 12.1669 6.06607 12.2862 5.98702 12.2559C5.77771 12.1755 5.9459 11.8896 5.9459 11.8896C5.9459 11.8896 5.80253 11.9171 5.73583 11.8686C5.55007 11.7337 5.79094 11.0458 6.1784 10.8545Z" fill="white"/>
<path d="M26.2212 11.7177C25.8411 11.7779 25.2816 12.0145 25.2816 12.0145C25.2816 12.0145 25.4638 11.3104 25.7596 10.9759C26.5274 10.1079 27.9628 10.1847 28.8094 10.9759C29.6623 11.773 29.8922 13.3342 28.9083 13.9597C28.7086 14.0868 28.3478 14.1905 28.3478 14.1905C28.3478 14.1905 28.4067 13.7898 28.4138 13.5311C28.4301 12.9332 28.1995 12.0145 28.1995 12.0145C28.1995 12.0145 26.9928 11.5956 26.2212 11.7177Z" fill="#242424"/>
<path fill-rule="evenodd" clip-rule="evenodd" d="M19.8456 5.44565H11.1179V13.9713H12.8716C13.0146 14.2764 13.4038 15.0662 13.7625 15.4297C14.3494 16.0246 15.4815 16.113 15.4815 16.113C15.4815 16.113 14.8858 15.2455 14.644 14.5307C14.5886 14.3667 14.5389 14.1728 14.4953 13.9713H19.8456V5.44565Z" fill="#49C2BB"/>
<path d="M19.9828 9.65238C20.3336 9.69779 20.5397 9.82827 20.7364 10.0665C20.9791 10.3603 20.9224 10.6382 20.7491 10.8582C20.4916 11.1849 19.926 11.2652 19.645 11.2068C19.5194 11.1807 19.4506 10.9901 19.4506 10.9901C19.4506 10.9901 19.1604 11.0167 19.068 10.9443C18.9689 10.8666 19.0766 10.7024 19.0766 10.7024C19.0766 10.7024 18.8739 10.73 18.8152 10.6609C18.66 10.4778 19.0285 10.3454 19.0285 10.3454C19.0285 10.3454 18.8647 10.2859 18.8311 10.2093C18.7376 9.99607 19.4589 9.58457 19.9828 9.65238Z" fill="white"/>
<path d="M11.0504 9.65238C10.6996 9.69779 10.4935 9.82827 10.2968 10.0665C10.0541 10.3603 10.1108 10.6382 10.2841 10.8582C10.5416 11.1849 11.1072 11.2652 11.3882 11.2068C11.5138 11.1807 11.5827 10.9901 11.5827 10.9901C11.5827 10.9901 11.8728 11.0167 11.9652 10.9443C12.0643 10.8666 11.9566 10.7024 11.9566 10.7024C11.9566 10.7024 12.1593 10.73 12.218 10.6609C12.3732 10.4778 12.0047 10.3454 12.0047 10.3454C12.0047 10.3454 12.1685 10.2859 12.2021 10.2093C12.2956 9.99607 11.5743 9.58457 11.0504 9.65238Z" fill="white"/>
<path d="M13.3603 4.07178H13.663" stroke="#242424" stroke-width="0.161623" stroke-linecap="round"/>
<path d="M13.6024 2.87993C13.3132 3.27168 13.0367 3.99108 13.0367 3.99108C13.0367 3.99108 12.7836 3.47818 12.7336 3.12236C12.5371 1.72277 13.9373 0.71074 15.3398 0.536397C16.8671 0.346551 18.1912 1.42218 18.249 2.87993C18.2676 3.34685 18.0066 4.05169 18.0066 4.05169C18.0066 4.05169 17.6352 3.30632 17.3197 2.87993C16.9645 2.39988 16.2691 1.76877 16.2691 1.76877C16.2691 1.76877 15.9595 1.9351 15.7439 1.991C15.5894 2.03104 15.3398 2.05161 15.3398 2.05161L15.5822 1.76877C15.5822 1.76877 15.2674 1.98532 15.0368 2.05161C14.8759 2.09784 14.6125 2.11222 14.6125 2.11222L14.7539 1.84958C14.7539 1.84958 13.9608 2.39443 13.6024 2.87993Z" fill="#242424"/>
<path d="M17.3598 4.0314H17.5818" stroke="#242424" stroke-width="0.161623" stroke-linecap="round"/>
<path d="M15.1377 4.01123H15.7842" stroke="#242424" stroke-width="0.161623"/>
<circle cx="0.808115" cy="0.808115" r="0.727303" transform="matrix(-1 0 0 1 17.3818 3.34457)" stroke="#242424" stroke-width="0.161623"/>
<circle cx="14.4718" cy="4.15269" r="0.727303" stroke="#242424" stroke-width="0.161623"/>
</svg>
