<svg width="42" height="46" viewBox="0 0 42 46" fill="none" xmlns="http://www.w3.org/2000/svg">
<path d="M14.7453 27.5671L16.7257 20.2579L20.5263 22.4522L18.6381 29.4214C18.6176 29.497 18.5448 29.6952 18.4173 29.8837C18.2898 30.0722 17.7314 29.9464 17.4682 29.8599C17.1 29.691 16.2209 29.2446 15.6505 28.8105C15.0802 28.3764 14.8094 27.8007 14.7453 27.5671Z" fill="#444444" stroke="#FAFAFA" stroke-width="0.8"/>
<path d="M9.67929 24.6406L11.6597 17.3314L16.7272 20.2571L14.8389 27.2263C14.8184 27.3019 14.7401 27.4969 14.5906 27.6727C14.441 27.8484 13.712 27.6241 13.3661 27.4899C12.8785 27.2521 11.7111 26.6393 10.9425 26.0907C10.1739 25.5421 9.78012 24.8954 9.67929 24.6406Z" fill="#444444" stroke="#FAFAFA" stroke-width="0.8"/>
<path d="M21.1725 8.02742L33.4129 14.9918M21.1725 8.02742L33.4129 14.9918M21.1725 8.02742L21.3704 7.67976L33.4129 14.9918M21.1725 8.02742C20.9599 7.90645 20.6993 7.90645 20.4867 8.02742L8.24636 14.9918L20.8296 22.1512L33.4129 14.9918M7.8375 18.917L7.8375 15.6796L20.6318 22.9591L20.8296 23.0716L21.0274 22.9591L33.8218 15.6796L33.8218 29.5952C33.8218 29.8445 33.6879 30.0746 33.4712 30.1979L29.406 32.5109L25.2498 34.8756L20.8296 37.3905L8.18801 30.1979C7.97133 30.0746 7.8375 29.8445 7.8375 29.5952L7.8375 23.9968L7.8375 18.917Z" stroke="#FAFAFA" stroke-width="0.8"/>
<path d="M25.4458 13.1448L20.366 10.1431L16.6716 12.2212M25.4458 13.1448L25.4458 15.4538L24.4059 16.0387L21.7514 17.5319M25.4458 13.1448L21.7514 15.2229M21.7514 17.5319L21.7514 15.2229M21.7514 17.5319L17.7294 15.1553L16.6716 14.5302L16.6716 12.2212M16.6716 12.2212L21.7514 15.2229" stroke="#FAFAFA" stroke-width="0.8"/>
<path d="M5.87704 22.446L7.57147 16.1922C7.7294 15.6093 8.28138 15.3816 8.80436 15.6835L11.658 17.3311L9.76977 24.3003C9.7493 24.3759 9.67648 24.5741 9.54898 24.7626C9.42147 24.951 8.86316 24.8253 8.59994 24.7388C8.23168 24.5699 7.35257 24.1235 6.78226 23.6894C6.21194 23.2553 5.94115 22.6796 5.87704 22.446Z" fill="#444444" stroke="#FAFAFA" stroke-width="0.8"/>
</svg>
