<svg width="18" height="18" viewBox="0 0 18 18" fill="none" xmlns="http://www.w3.org/2000/svg">
<path d="M4.38449 4.75391C4.10835 4.75391 3.88449 4.97776 3.88449 5.25391C3.88449 5.53005 4.10835 5.75391 4.38449 5.75391V4.75391ZM5.38449 5.25391L5.88236 5.20781C5.85855 4.95063 5.64277 4.75391 5.38449 4.75391V5.25391ZM13.3845 6.50006L13.8801 6.56634C13.8992 6.42345 13.8557 6.27926 13.7608 6.17077C13.6658 6.06229 13.5287 6.00006 13.3845 6.00006V6.50006ZM5.49988 6.50006L5.00201 6.54616L5.49988 6.50006ZM13.0322 9.13443L12.5366 9.06815L13.0322 9.13443ZM4.38449 5.75391H5.38449V4.75391H4.38449V5.75391ZM7.21948 11.0756L11.8021 10.8036L11.7429 9.80539L7.16024 10.0773L7.21948 11.0756ZM13.5277 9.20072L13.8801 6.56634L12.8889 6.43378L12.5366 9.06815L13.5277 9.20072ZM4.88662 5.30001L5.00201 6.54616L5.99775 6.45396L5.88236 5.20781L4.88662 5.30001ZM5.00201 6.54616L5.26606 9.39791L6.2618 9.30571L5.99775 6.45396L5.00201 6.54616ZM13.3845 6.00006H5.49988V7.00006H13.3845V6.00006ZM11.8021 10.8036C12.6868 10.7511 13.4103 10.0791 13.5277 9.20072L12.5366 9.06815C12.4825 9.47216 12.1498 9.78124 11.7429 9.80539L11.8021 10.8036ZM7.16024 10.0773C6.70167 10.1045 6.30415 9.76314 6.2618 9.30571L5.26606 9.39791C5.35815 10.3925 6.22243 11.1347 7.21948 11.0756L7.16024 10.0773Z" fill="#49C2BB"/>
<rect x="7.04443" y="12.9741" width="0.00754513" height="0.00754513" stroke="#49C2BB" stroke-linejoin="round"/>
<rect x="11.3267" y="12.9741" width="0.00754513" height="0.00754513" stroke="#49C2BB" stroke-linejoin="round"/>
</svg>
