<svg width="46" height="46" viewBox="0 0 46 46" fill="none" xmlns="http://www.w3.org/2000/svg">
<path d="M16.6398 31.1038L16.0476 30.7618V30.1029C15.4308 29.7002 14.9394 29.2118 14.5734 28.6378C14.2074 28.0604 14.0229 27.483 14.02 26.9056L14.9365 27.4347C14.9596 27.7542 15.0691 28.0704 15.2651 28.3832C15.4611 28.696 15.7219 28.9681 16.0476 29.1994V26.8382L15.6628 26.5012C15.1786 26.0819 14.8068 25.6343 14.5474 25.1584C14.2909 24.6809 14.1627 24.2008 14.1627 23.7182C14.1627 23.1492 14.3298 22.7831 14.6642 22.62C14.9985 22.4536 15.4596 22.5085 16.0476 22.7848V22.0909L16.6398 22.4328V23.1267C17.2018 23.5044 17.6529 23.9745 17.993 24.5369C18.3359 25.0977 18.5146 25.6584 18.529 26.2192L17.6255 25.6975C17.6169 25.4097 17.5217 25.1135 17.3402 24.809C17.1586 24.5011 16.9252 24.2432 16.6398 24.0352V26.2666L17.0419 26.6036C17.5808 27.0711 17.9814 27.542 18.2437 28.0163C18.506 28.4872 18.6371 28.9806 18.6371 29.4964C18.6371 30.1021 18.4627 30.4873 18.114 30.652C17.7653 30.8167 17.2739 30.746 16.6398 30.4399V31.1038ZM17.7206 29.0671C17.7206 28.7709 17.6327 28.4805 17.4569 28.196C17.284 27.9098 17.0116 27.6144 16.6398 27.3099V29.5563C16.9828 29.731 17.248 29.7759 17.4353 29.6911C17.6255 29.6045 17.7206 29.3965 17.7206 29.0671ZM15.0878 24.1775C15.0878 24.4471 15.17 24.7175 15.3342 24.9887C15.4985 25.2599 15.7363 25.5237 16.0476 25.7799V23.6933C15.7709 23.5502 15.5418 23.5244 15.3602 23.6159C15.1786 23.7041 15.0878 23.8913 15.0878 24.1775Z" fill="#FAFAFA"/>
<path d="M22.6873 8.28137L22.8851 8.62903C23.0691 8.52436 23.2946 8.52436 23.4785 8.62903L35.5548 15.5L23.1818 22.5398L10.8089 15.5L22.8851 8.62903L22.6873 8.28137ZM10.4 16.1878L22.984 23.3477L23.1818 23.4602L23.3796 23.3477L35.9636 16.1878V29.9184C35.9636 30.1341 35.8478 30.3333 35.6604 30.4399L23.1818 37.5398L10.7033 30.4399C10.5158 30.3333 10.4 30.1341 10.4 29.9184V16.1878Z" stroke="#FAFAFA" stroke-width="0.8"/>
</svg>
