<svg width="46" height="46" viewBox="0 0 46 46" fill="none" xmlns="http://www.w3.org/2000/svg">
<path d="M35.7843 21.901C35.8089 21.9012 35.8381 21.9099 35.873 21.9348C35.9192 21.9676 36.1217 22.1268 36.1593 22.1697C36.1855 22.1995 36.1913 22.1962 36.2164 22.2195C36.2763 22.2752 36.2844 22.303 36.3656 22.3802C36.3906 22.4041 36.3929 22.4131 36.4123 22.4406C36.4321 22.4686 36.4408 22.4716 36.4607 22.4991C36.8284 23.0077 36.9689 23.5193 36.9167 24.226C36.8716 24.8365 36.6559 25.3942 36.3475 25.8507C36.3422 25.8586 36.3411 25.86 36.3356 25.8678C36.3344 25.8695 36.3328 25.8718 36.3316 25.8735L35.9851 26.2661C35.6684 26.5489 35.6344 26.4451 35.3419 26.1444L35.2486 26.034C35.2298 26.0062 35.2177 25.9967 35.2013 25.9742C35.1851 25.9517 35.1735 25.9344 35.1569 25.912L34.9967 25.6549C34.9746 25.6149 34.9518 25.5717 34.9276 25.5219C34.7344 25.1239 34.6213 24.7106 34.585 24.1856C34.5406 23.5418 34.7207 22.9729 35.059 22.5263L35.4719 22.1043C35.5446 22.0462 35.623 21.985 35.7026 21.932C35.722 21.9191 35.7481 21.9007 35.7843 21.901ZM35.7843 21.901L35.7843 19.4154" stroke="#FAFAFA" stroke-width="0.8" stroke-miterlimit="22.9256"/>
<path d="M11.4939 21.4206L8.47276 19.6507C7.81342 19.2644 7.81342 18.3113 8.47276 17.925L21.4945 10.2961C21.8067 10.1133 22.1933 10.1133 22.5055 10.2961L35.5272 17.925C36.1865 18.3113 36.1865 19.2644 35.5272 19.6507L32.7895 21.2546M11.4939 21.4206L21.4945 27.2796C21.8067 27.4625 22.1933 27.4625 22.5055 27.2796L32.7895 21.2546M11.4939 21.4206V29.6354C11.4939 29.9904 11.6821 30.3188 11.9884 30.4983L21.4944 36.0674C21.8065 36.2503 22.1932 36.2503 22.5053 36.0674L32.295 30.3321C32.6013 30.1526 32.7895 29.8242 32.7895 29.4692V21.2546" stroke="#FAFAFA" stroke-width="0.8"/>
</svg>
