<svg width="27" height="30" viewBox="0 0 27 30" fill="none" xmlns="http://www.w3.org/2000/svg">
<path fill-rule="evenodd" clip-rule="evenodd" d="M-0.000366211 7.96026V7.50004L0.404063 7.26994L12.6869 0.28141C12.9935 0.106962 13.3694 0.106962 13.676 0.28141L25.9588 7.26994L26.3633 7.50004V7.96025V21.9185C26.3633 22.278 26.1703 22.6098 25.8578 22.7876L13.5815 29.7725L13.1815 30L12.7815 29.7725L0.505109 22.7876C0.192626 22.6098 -0.000366211 22.278 -0.000366211 21.9185V7.96026ZM0.799634 21.9185V8.41543L12.7815 15.2327L12.7815 28.852L0.900729 22.0923C0.838232 22.0568 0.799634 21.9904 0.799634 21.9185ZM13.5815 28.852L13.5815 15.2327L25.5633 8.41543V21.9185C25.5633 21.9904 25.5247 22.0568 25.4622 22.0923L13.5815 28.852ZM13.2804 0.976741L25.15 7.73015L13.1815 14.5398L1.21292 7.73015L13.0825 0.976741C13.1439 0.941851 13.219 0.941851 13.2804 0.976741ZM4.65964 14.8392C4.25236 15.0824 4.03236 15.5094 3.99963 16.1203L4.93237 16.4644C4.96146 16.0817 5.09965 15.823 5.34692 15.6883C5.59783 15.555 5.92874 15.5642 6.33966 15.7158C6.73966 15.8634 7.06148 16.0932 7.30512 16.4053C7.5524 16.7151 7.67603 17.0412 7.67603 17.3837C7.67603 17.6715 7.60876 17.8889 7.47421 18.036C7.3433 18.1844 7.11785 18.298 6.79784 18.3766C6.41966 18.463 6.14147 18.6044 5.96329 18.801C5.78874 18.9989 5.70329 19.277 5.70692 19.6354V20.1381L6.66148 20.4902V20.1351C6.66148 19.8436 6.7233 19.6296 6.84694 19.4931C6.97421 19.3579 7.20876 19.2513 7.55058 19.1734C8.31059 18.9948 8.69059 18.5066 8.69059 17.7088C8.69059 17.1405 8.47423 16.5889 8.04149 16.054C7.6124 15.5205 7.05785 15.1283 6.37784 14.8774C5.64329 14.6064 5.07055 14.5937 4.65964 14.8392ZM5.74511 22.4637C5.86511 22.6281 6.01238 22.7426 6.18693 22.807C6.36511 22.8727 6.51239 22.8669 6.62875 22.7896C6.74875 22.7137 6.80875 22.5883 6.80875 22.4134C6.80875 22.2349 6.74875 22.0652 6.62875 21.9044C6.51239 21.7413 6.36511 21.6268 6.18693 21.5611C6.01238 21.4967 5.86511 21.5025 5.74511 21.5784C5.6251 21.6507 5.5651 21.7761 5.5651 21.9546C5.5651 22.1295 5.6251 22.2992 5.74511 22.4637Z" fill="white"/>
</svg>
