<svg width="22" height="24" viewBox="0 0 22 24" fill="none" xmlns="http://www.w3.org/2000/svg">
<path fill-rule="evenodd" clip-rule="evenodd" d="M0.0368198 10.9969C0.317236 11.3992 0.341621 12.5697 1.14629 14.0571C2.53619 16.6418 5.34035 18.5803 8.43712 19.2021C11.2047 19.763 13.4115 19.4216 15.1915 18.0073C15.8621 17.4709 16.557 16.654 16.9228 15.5811C17.2276 14.6789 17.2763 13.3378 16.9106 12.4478L16.6667 12.0332C15.6182 14.8496 10.8877 16.5809 7.38861 14.4107C6.6327 13.9474 5.58419 13.0208 5.25501 12.0698L5.42569 11.765C4.98678 11.9357 5.09651 11.9113 4.92582 11.3871C3.81635 8.00986 7.07161 3.5232 13.3383 4.80336C17.0935 5.57146 20.1658 7.90013 21.3485 11.4114C21.5435 11.9845 21.5679 12.7282 21.7996 13.1915C21.8727 9.22906 21.7996 6.69313 19.5441 4.19376C17.8981 2.36496 15.3866 0.853147 11.9728 0.548346C5.66953 -0.0246789 -0.536205 4.57171 0.0368198 10.9969Z" fill="#49C2BB"/>
<path fill-rule="evenodd" clip-rule="evenodd" d="M5.41394 11.7527C5.54806 10.9724 6.8526 9.89953 7.60851 9.46062C8.60825 8.8876 9.85184 8.5706 11.193 8.60718C13.6679 8.69252 16.1185 10.2897 16.6672 12.0209L16.911 12.4355C17.2768 13.3255 17.228 14.6666 16.9232 15.5688C16.5575 16.6417 15.8747 17.4586 15.1919 17.995C13.4119 19.4093 11.2174 19.7507 8.43757 19.1899C5.34079 18.5681 2.54882 16.6173 1.14674 14.0448C0.342063 12.5574 0.317679 11.387 0.037262 10.9846C0.317679 12.6915 -0.121233 14.374 0.390832 16.2516C1.47592 20.2262 5.41394 23.0669 9.93719 23.4571C14.5458 23.8472 19.0446 21.5551 20.9222 17.7634C21.861 15.8614 21.5562 15.264 21.8 13.167C21.5562 12.7159 21.5318 11.96 21.3489 11.387C20.1663 7.87566 17.0939 5.54698 13.3388 4.77888C7.07206 3.49872 3.81679 7.98539 4.92626 11.3626C5.08476 11.899 4.97503 11.9234 5.41394 11.7527Z" fill="#242424"/>
<path fill-rule="evenodd" clip-rule="evenodd" d="M9.97306 12.1796C9.76579 10.7897 11.7409 10.6312 11.8994 11.8382C12.0701 13.2281 10.1437 13.3378 9.97306 12.1796ZM8.66851 12.4234C9.22934 15.3251 13.6672 14.6302 13.1917 11.6066C13.0089 10.4361 11.936 9.48515 10.4607 9.75337C9.40003 9.94845 8.41248 11.1067 8.66851 12.4234Z" fill="#49C2BB"/>
<path fill-rule="evenodd" clip-rule="evenodd" d="M9.97314 12.1795C10.1438 13.3377 12.0824 13.2158 11.8995 11.8381C11.741 10.6433 9.76587 10.7896 9.97314 12.1795Z" fill="#242424"/>
</svg>
