<svg width="30" height="30" viewBox="0 0 30 30" fill="none" xmlns="http://www.w3.org/2000/svg">
<rect x="0.5" y="0.5" width="29" height="29" rx="3.5" fill="white"/>
<rect x="0.5" y="0.5" width="29" height="29" rx="3.5" stroke="#EFEFEF"/>
<path fill-rule="evenodd" clip-rule="evenodd" d="M14.3323 7.12655C12.5012 7.79228 12.324 10.2928 14.0502 11.1084C15.1318 11.6192 16.2997 11.2713 16.9238 10.252C17.9431 8.58787 16.1757 6.45623 14.3323 7.12655ZM12.1592 13.3417C12.0717 13.5046 12 13.9821 12 14.4028C12 15.2926 12.2672 15.649 12.934 15.649H13.3846V17.9462V20.2434H12.934C12.2366 20.2434 12 20.5924 12 21.6217C12 22.987 12.0278 23 14.9442 23C16.3462 23 17.5329 22.9318 17.7025 22.8415C17.9489 22.7101 18 22.5151 18 21.7038C18 20.6203 17.7788 20.2434 17.1429 20.2434H16.7692V16.9406C16.7692 14.9569 16.7057 13.5196 16.61 13.3417C16.4646 13.0714 16.2698 13.0455 14.3846 13.0455C12.4994 13.0455 12.3046 13.0714 12.1592 13.3417Z" fill="#317ADF"/>
</svg>
